####
#
# OBJ File Hand coded as sample for IGLU for SimpleDrawCornellBox6 Example
#
####

mtllib testBox.mtl

vt 1 0
vn 0 1 0
v  0.000 0.000 0.000
vt 1 1
vn 0 1 0
v  0.000 0.000 5.592
vt 0 0
vn 0 1 0
v  5.560 0.000 0.000
vt 0 1
vn 0 1 0
v  5.560 0.000 5.592
vt 1 0
vn 0 -1 0
v  0.000 5.488 5.592
vt 1 1
vn 0 -1 0
v  0.000 5.488 0.000
vt 0 0
vn 0 -1 0
v  5.560 5.488 5.592
vt 0 1
vn 0 -1 0
v  5.560 5.488 0.000
vt 1 0
vn 0 0 -1
v  0.000 0.000 5.592
vt 1 1
vn 0 0 -1
v  0.000 5.488 5.592
vt 0 0
vn 0 0 -1
v  5.560 0.000 5.592
vt 0 1
vn 0 0 -1
v  5.560 5.488 5.592
vt 0 0
vn -1 0 0
v  5.560 0.000 0.000
vt 1 0
vn -1 0 0
v  5.560 0.000 5.592
vt 0 1
vn -1 0 0
v  5.560 5.488 0.000
vt 1 1
vn -1 0 0
v  5.560 5.488 5.592
vt 0 0
vn 1 0 0
v  0.000 0.000 5.592
vt 1 0
vn 1 0 0
v  0.000 0.000 0.000
vt 0 1
vn 1 0 0
v  0.000 5.488 5.592
vt 1 1
vn 1 0 0
v  0.000 5.488 0.000
vt 0 1
vn 0 1 0
v  1.30 1.65 0.65
vt 1 1
vn 0 1 0
v  0.82 1.65 2.25
vt 0 0
vn 0 1 0
v  2.90 1.65 1.14
vt 1 0
vn 0 1 0
v  2.40 1.65 2.72
vt 0 1
vn 0.953 0.000 0.302
v  2.90 0 1.14
vt 1 1
vn 0.953 0.000 0.302
v  2.90 1.65 1.14
vt 0 0
vn 0.953 0.000 0.302
v  2.40 0 2.72
vt 1 0
vn 0.953 0.000 0.302
v  2.40 1.65 2.72
vt 0 1
vn 0.293 0.000 -0.956
v  1.30 0 0.65
vt 1 1
vn 0.293 0.000 -0.956
v  1.30 1.65 0.65
vt 0 0
vn 0.293 0.000 -0.956
v  2.90 0 1.14
vt 1 0
vn 0.293 0.000 -0.956
v  2.90 1.65 1.14
vt 0 1
vn -0.958 0.000 -0.287
v  0.82 0 2.25
vt 1 1
vn -0.958 0.000 -0.287
v  0.82 1.65 2.25
vt 0 0
vn -0.958 0.000 -0.287
v  1.30 0 0.65
vt 1 0
vn -0.958 0.000 -0.287
v  1.30 1.65 0.65
vt 0 1
vn -0.285 0.000 0.958
v  2.40 0 2.72
vt 1 1
vn -0.285 0.000 0.958
v  2.40 1.65 2.72
vt 0 0
vn -0.285 0.000 0.958
v  0.82 0 2.25
vt 1 0
vn -0.285 0.000 0.958
v  0.82 1.65 2.25
vt 0 1
vn 0 1 0
v  4.23 3.30 2.47
vt 1 1
vn 0 1 0
v  2.65 3.30 2.96
vt 0 0
vn 0 1 0
v  4.72 3.30 4.06
vt 1 0
vn 0 1 0
v  3.14 3.30 4.56
vt 0 1
vn 0.956 0.000 -0.295
v  4.23 0 2.47
vt 1 1
vn 0.956 0.000 -0.295
v  4.23 3.30 2.47
vt 0 0
vn 0.956 0.000 -0.295
v  4.72 0 4.06
vt 1 0
vn 0.956 0.000 -0.295
v  4.72 3.30 4.06
vt 0 1
vn 0.302 0.000 0.953
v  4.72 0 4.06
vt 1 1
vn 0.302 0.000 0.953
v  4.72 3.30 4.06
vt 0 0
vn 0.302 0.000 0.953
v  3.14 0 4.56
vt 1 0
vn 0.302 0.000 0.953
v  3.14 3.30 4.56
vt 0 1
vn -0.956 0.000 0.293
v  3.14 0 4.56
vt 1 1
vn -0.956 0.000 0.293
v  3.14 3.30 4.56
vt 0 0
vn -0.956 0.000 0.293
v  2.65 0 2.96
vt 1 0
vn -0.956 0.000 0.293
v  2.65 3.30 2.96
vt 0 1
vn -0.296 0.000 -0.955
v  2.65 0 2.96
vt 1 1
vn -0.296 0.000 -0.955
v  2.65 3.30 2.96
vt 0 0
vn -0.296 0.000 -0.955
v  4.23 0 2.47
vt 1 0
vn -0.296 0.000 -0.955
v  4.23 3.30 2.47

usemtl White
f 1/1/1 2/2/2 4/4/4 3/3/3

#usemtl White
#f 5/5/5 6/6/6 8/8/8 7/7/7

usemtl White
f 9/9/9 10/10/10 12/12/12 11/11/11

usemtl Red
f 13/13/13 14/14/14 16/16/16 15/15/15

usemtl Green
f 17/17/17 18/18/18 20/20/20 19/19/19
